<svg width="55" height="55" viewBox="0 0 55 55" fill="none" xmlns="http://www.w3.org/2000/svg">
<path fill-rule="evenodd" clip-rule="evenodd" d="M27.5001 0.416626C12.5501 0.416626 0.416748 12.55 0.416748 27.5C0.416748 42.45 12.5501 54.5833 27.5001 54.5833C42.4501 54.5833 54.5834 42.45 54.5834 27.5C54.5834 12.55 42.4501 0.416626 27.5001 0.416626ZM37.2772 17.5875C40.1751 17.5875 42.5042 19.9166 42.5042 22.8145C42.5042 25.7125 40.1751 28.0416 37.2772 28.0416C34.3792 28.0416 32.0501 25.7125 32.0501 22.8145C32.023 19.9166 34.3792 17.5875 37.2772 17.5875ZM27.4188 19.7C27.4188 16.1791 24.548 13.3083 21.0272 13.3083C17.4792 13.3083 14.6355 16.152 14.6355 19.7C14.6355 23.2208 17.5063 26.0916 21.0272 26.0916C24.548 26.0916 27.4188 23.2208 27.4188 19.7ZM21.0272 38.0354V48.1916C14.5272 46.1604 9.38133 41.15 7.10633 34.7583C9.95008 31.725 17.0459 30.1812 21.0272 30.1812C22.4626 30.1812 24.2772 30.3979 26.173 30.777C21.7313 33.1333 21.0272 36.2479 21.0272 38.0354ZM25.3605 49.0583C26.0647 49.1395 26.7688 49.1666 27.5001 49.1666C36.6813 49.1666 44.5084 43.425 47.6772 35.3812C45.1855 33.3229 40.1751 32.2666 37.2772 32.2666C33.323 32.2666 25.3605 34.1895 25.3605 38.0354V49.0583Z" fill="#F3753F"/>
</svg>
