<svg width="16" height="16" viewBox="0 0 16 16" fill="none" xmlns="http://www.w3.org/2000/svg">
<path d="M3.53325 13.6667C3.19992 13.6667 2.91659 13.55 2.68325 13.3167C2.44992 13.0834 2.33325 12.8 2.33325 12.4667V3.53337C2.33325 3.20004 2.44992 2.91671 2.68325 2.68337C2.91659 2.45004 3.19992 2.33337 3.53325 2.33337H7.74992V3.33337H3.53325C3.48881 3.33337 3.44436 3.3556 3.39992 3.40004C3.35547 3.44449 3.33325 3.48893 3.33325 3.53337V12.4667C3.33325 12.5112 3.35547 12.5556 3.39992 12.6C3.44436 12.6445 3.48881 12.6667 3.53325 12.6667H12.4666C12.511 12.6667 12.5555 12.6445 12.5999 12.6C12.6444 12.5556 12.6666 12.5112 12.6666 12.4667V8.25004H13.6666V12.4667C13.6666 12.8 13.5499 13.0834 13.3166 13.3167C13.0833 13.55 12.7999 13.6667 12.4666 13.6667H3.53325ZM6.48325 10.2167L5.78325 9.51671L11.9666 3.33337H9.33325V2.33337H13.6666V6.66671H12.6666V4.03337L6.48325 10.2167Z" fill="white"/>
</svg>
