<svg xmlns="http://www.w3.org/2000/svg" width="40" height="40" viewBox="0 0 40 40" fill="none">
  <path d="M19.1477 20.1645L20 20.9591L20.8523 20.1645C24.2798 16.9694 28.7756 14.9168 33.75 14.6206V30.4502C28.5175 30.73 23.752 32.7545 20.0017 35.9138C16.249 32.7404 11.4817 30.728 6.25 30.45V14.6206C11.2244 14.9168 15.7202 16.9694 19.1477 20.1645ZM23.75 8.3335C23.75 10.4098 22.0763 12.0835 20 12.0835C17.9237 12.0835 16.25 10.4098 16.25 8.3335C16.25 6.25719 17.9237 4.5835 20 4.5835C22.0763 4.5835 23.75 6.25719 23.75 8.3335Z" stroke="#FF5F02" stroke-width="2.5"/>
</svg>
