              <svg xmlns="http://www.w3.org/2000/svg" width="42" height="42" viewBox="0 0 42 42" fill="none">
                <mask id="mask0_301_35880" style="mask-type:alpha" maskUnits="userSpaceOnUse" x="0" y="0" width="42" height="42">
                  <rect width="42" height="42" fill="#D9D9D9"/>
                </mask>
                <g mask="url(#mask0_301_35880)">
                  <path d="M5.25 40.25V32.9C4.22917 32.55 3.39062 31.9302 2.73438 31.0406C2.07812 30.151 1.75 29.1375 1.75 28V10.5H5.25V3.5C5.25 3.00417 5.41771 2.58854 5.75313 2.25313C6.08854 1.91771 6.50417 1.75 7 1.75C7.49583 1.75 7.91146 1.91771 8.24688 2.25313C8.58229 2.58854 8.75 3.00417 8.75 3.5V10.5H12.25V28C12.25 29.1375 11.9219 30.151 11.2656 31.0406C10.6094 31.9302 9.77083 32.55 8.75 32.9V40.25H5.25ZM19.25 40.25V32.9C18.2292 32.55 17.3906 31.9302 16.7344 31.0406C16.0781 30.151 15.75 29.1375 15.75 28V10.5H19.25V3.5C19.25 3.00417 19.4177 2.58854 19.7531 2.25313C20.0885 1.91771 20.5042 1.75 21 1.75C21.4958 1.75 21.9115 1.91771 22.2469 2.25313C22.5823 2.58854 22.75 3.00417 22.75 3.5V10.5H26.25V28C26.25 29.1375 25.9219 30.151 25.2656 31.0406C24.6094 31.9302 23.7708 32.55 22.75 32.9V40.25H19.25ZM33.25 40.25V32.9C32.2292 32.55 31.3906 31.9302 30.7344 31.0406C30.0781 30.151 29.75 29.1375 29.75 28V10.5H33.25V3.5C33.25 3.00417 33.4177 2.58854 33.7531 2.25313C34.0885 1.91771 34.5042 1.75 35 1.75C35.4958 1.75 35.9115 1.91771 36.2469 2.25313C36.5823 2.58854 36.75 3.00417 36.75 3.5V10.5H40.25V28C40.25 29.1375 39.9219 30.151 39.2656 31.0406C38.6094 31.9302 37.7708 32.55 36.75 32.9V40.25H33.25ZM5.25 14V21H8.75V14H5.25ZM19.25 14V21H22.75V14H19.25ZM33.25 14V21H36.75V14H33.25ZM7 29.75C7.49583 29.75 7.91146 29.5823 8.24688 29.2469C8.58229 28.9115 8.75 28.4958 8.75 28V24.5H5.25V28C5.25 28.4958 5.41771 28.9115 5.75313 29.2469C6.08854 29.5823 6.50417 29.75 7 29.75ZM21 29.75C21.4958 29.75 21.9115 29.5823 22.2469 29.2469C22.5823 28.9115 22.75 28.4958 22.75 28V24.5H19.25V28C19.25 28.4958 19.4177 28.9115 19.7531 29.2469C20.0885 29.5823 20.5042 29.75 21 29.75ZM35 29.75C35.4958 29.75 35.9115 29.5823 36.2469 29.2469C36.5823 28.9115 36.75 28.4958 36.75 28V24.5H33.25V28C33.25 28.4958 33.4177 28.9115 33.7531 29.2469C34.0885 29.5823 34.5042 29.75 35 29.75Z" fill="#FF5F02"/>
                </g>
              </svg>