<svg xmlns="http://www.w3.org/2000/svg" width="40" height="40" viewBox="0 0 40 40" fill="none">
  <path d="M11.5417 28.375H23V25.875H11.5417V28.375ZM11.5417 21.25H28.4583V18.75H11.5417V21.25ZM11.5417 14.125H28.4583V11.625H11.5417V14.125ZM7.5 35C6.83333 35 6.25 34.75 5.75 34.25C5.25 33.75 5 33.1667 5 32.5V7.5C5 6.83333 5.25 6.25 5.75 5.75C6.25 5.25 6.83333 5 7.5 5H32.5C33.1667 5 33.75 5.25 34.25 5.75C34.75 6.25 35 6.83333 35 7.5V32.5C35 33.1667 34.75 33.75 34.25 34.25C33.75 34.75 33.1667 35 32.5 35H7.5ZM7.5 32.5H32.5V7.5H7.5V32.5Z" fill="#FF5F02"/>
</svg>
