          <svg xmlns="http://www.w3.org/2000/svg" width="42" height="42" viewBox="0 0 42 42" fill="none">
            <path d="M25.0125 31.225L14.425 20.55C13.8417 20.7833 13.251 20.9583 12.6531 21.075C12.0552 21.1917 11.4208 21.25 10.75 21.25C7.83333 21.25 5.35417 20.2292 3.3125 18.1875C1.27083 16.1458 0.25 13.6667 0.25 10.75C0.25 9.7 0.395833 8.70104 0.6875 7.75312C0.979167 6.80521 1.3875 5.90833 1.9125 5.0625L8.3 11.45L11.45 8.3L5.0625 1.9125C5.90833 1.3875 6.80521 0.979167 7.75312 0.6875C8.70104 0.395833 9.7 0.25 10.75 0.25C13.6667 0.25 16.1458 1.27083 18.1875 3.3125C20.2292 5.35417 21.25 7.83333 21.25 10.75C21.25 11.4208 21.1917 12.0552 21.075 12.6531C20.9583 13.251 20.7833 13.8417 20.55 14.425L31.225 25.0125C31.575 25.3625 31.75 25.7854 31.75 26.2812C31.75 26.7771 31.575 27.2 31.225 27.55L27.55 31.225C27.2 31.575 26.7771 31.75 26.2812 31.75C25.7854 31.75 25.3625 31.575 25.0125 31.225ZM26.2812 27.5063L27.4625 26.325L16.2625 15.125C16.7875 14.5417 17.1667 13.8635 17.4 13.0906C17.6333 12.3177 17.75 11.5375 17.75 10.75C17.75 9 17.1885 7.47604 16.0656 6.17812C14.9427 4.88021 13.55 4.1 11.8875 3.8375L15.125 7.075C15.475 7.425 15.65 7.83333 15.65 8.3C15.65 8.76667 15.475 9.175 15.125 9.525L9.525 15.125C9.175 15.475 8.76667 15.65 8.3 15.65C7.83333 15.65 7.425 15.475 7.075 15.125L3.8375 11.8875C4.1 13.55 4.88021 14.9427 6.17812 16.0656C7.47604 17.1885 9 17.75 10.75 17.75C11.5083 17.75 12.2667 17.6333 13.025 17.4C13.7833 17.1667 14.4688 16.8021 15.0813 16.3062L26.2812 27.5063Z" fill="#FF5F02"/>
          </svg>
