          <svg xmlns="http://www.w3.org/2000/svg" width="40" height="40" viewBox="0 0 40 40" fill="none">
            <circle cx="20" cy="20" r="20" fill="black" fill-opacity="0.04"/>
            <mask id="mask0_301_35947" style="mask-type:alpha" maskUnits="userSpaceOnUse" x="8" y="8" width="24" height="24">
              <rect x="8" y="8" width="24" height="24" fill="#D9D9D9"/>
            </mask>
            <g mask="url(#mask0_301_35947)">
              <path d="M20 30.5C18.8 29.3667 17.425 28.5 15.875 27.9C14.325 27.3 12.7 27 11 27V16C12.6833 16 14.3 16.3042 15.85 16.9125C17.4 17.5208 18.7833 18.4 20 19.55C21.2167 18.4 22.6 17.5208 24.15 16.9125C25.7 16.3042 27.3167 16 29 16V27C27.2833 27 25.6542 27.3 24.1125 27.9C22.5708 28.5 21.2 29.3667 20 30.5ZM20 27.9C21.05 27.1167 22.1667 26.4917 23.35 26.025C24.5333 25.5583 25.75 25.25 27 25.1V18.2C25.7833 18.4167 24.5875 18.8542 23.4125 19.5125C22.2375 20.1708 21.1 21.05 20 22.15C18.9 21.05 17.7625 20.1708 16.5875 19.5125C15.4125 18.8542 14.2167 18.4167 13 18.2V25.1C14.25 25.25 15.4667 25.5583 16.65 26.025C17.8333 26.4917 18.95 27.1167 20 27.9ZM20 17C18.9 17 17.9583 16.6083 17.175 15.825C16.3917 15.0417 16 14.1 16 13C16 11.9 16.3917 10.9583 17.175 10.175C17.9583 9.39167 18.9 9 20 9C21.1 9 22.0417 9.39167 22.825 10.175C23.6083 10.9583 24 11.9 24 13C24 14.1 23.6083 15.0417 22.825 15.825C22.0417 16.6083 21.1 17 20 17ZM20 15C20.55 15 21.0208 14.8042 21.4125 14.4125C21.8042 14.0208 22 13.55 22 13C22 12.45 21.8042 11.9792 21.4125 11.5875C21.0208 11.1958 20.55 11 20 11C19.45 11 18.9792 11.1958 18.5875 11.5875C18.1958 11.9792 18 12.45 18 13C18 13.55 18.1958 14.0208 18.5875 14.4125C18.9792 14.8042 19.45 15 20 15Z" fill="#00233C"/>
            </g>
          </svg>