              <svg xmlns="http://www.w3.org/2000/svg" width="42" height="42" viewBox="0 0 42 42" fill="none">
                <mask id="mask0_301_35889" style="mask-type:alpha" maskUnits="userSpaceOnUse" x="0" y="0" width="42" height="42">
                  <rect width="42" height="42" fill="#D9D9D9"/>
                </mask>
                <g mask="url(#mask0_301_35889)">
                  <path d="M21 39.375C18.9 37.3917 16.4938 35.875 13.7812 34.825C11.0687 33.775 8.225 33.25 5.25 33.25V14C8.19583 14 11.025 14.5323 13.7375 15.5969C16.45 16.6615 18.8708 18.2 21 20.2125C23.1292 18.2 25.55 16.6615 28.2625 15.5969C30.975 14.5323 33.8042 14 36.75 14V33.25C33.7458 33.25 30.8948 33.775 28.1969 34.825C25.499 35.875 23.1 37.3917 21 39.375ZM21 34.825C22.8375 33.4542 24.7917 32.3604 26.8625 31.5437C28.9333 30.7271 31.0625 30.1875 33.25 29.925V17.85C31.1208 18.2292 29.0281 18.9948 26.9719 20.1469C24.9156 21.299 22.925 22.8375 21 24.7625C19.075 22.8375 17.0844 21.299 15.0281 20.1469C12.9719 18.9948 10.8792 18.2292 8.75 17.85V29.925C10.9375 30.1875 13.0667 30.7271 15.1375 31.5437C17.2083 32.3604 19.1625 33.4542 21 34.825ZM21 15.75C19.075 15.75 17.4271 15.0646 16.0563 13.6938C14.6854 12.3229 14 10.675 14 8.75C14 6.825 14.6854 5.17708 16.0563 3.80625C17.4271 2.43542 19.075 1.75 21 1.75C22.925 1.75 24.5729 2.43542 25.9438 3.80625C27.3146 5.17708 28 6.825 28 8.75C28 10.675 27.3146 12.3229 25.9438 13.6938C24.5729 15.0646 22.925 15.75 21 15.75ZM21 12.25C21.9625 12.25 22.7865 11.9073 23.4719 11.2219C24.1573 10.5365 24.5 9.7125 24.5 8.75C24.5 7.7875 24.1573 6.96354 23.4719 6.27813C22.7865 5.59271 21.9625 5.25 21 5.25C20.0375 5.25 19.2135 5.59271 18.5281 6.27813C17.8427 6.96354 17.5 7.7875 17.5 8.75C17.5 9.7125 17.8427 10.5365 18.5281 11.2219C19.2135 11.9073 20.0375 12.25 21 12.25Z" fill="#FF5F02"/>
                </g>
              </svg>