<svg width="160" height="160" viewBox="0 0 160 160" fill="none" xmlns="http://www.w3.org/2000/svg">
<path fill-rule="evenodd" clip-rule="evenodd" d="M127.133 99.2L140.8 112.867L100.4 153.333H86.6667V139.6L127.133 99.2ZM20 94.818C20 111.185 46.8467 124.445 80 124.445C80.753 124.445 81.5028 124.438 82.2491 124.424L61.4479 145.223C38.0517 141.473 20.9709 130.822 20.04 118.131L20 117.038V94.818ZM20 57.778C20 74.1447 46.8467 87.4113 80 87.4113C103.235 87.4113 123.373 80.8951 133.342 71.3623L133.333 73.3247L98.4722 108.201C93.2646 109.032 87.745 109.521 82.0217 109.615L80 109.631C47.5233 109.631 21.0984 96.9006 20.0334 80.9961L20 79.998V57.778ZM142.8 88.6667L151.333 97.2C152.8 98.6 152.8 100.933 151.333 102.333L144.667 109L131 95.3333L137.667 88.6667C139.067 87.2 141.4 87.2 142.8 88.6667ZM80 13.3313C113.153 13.3313 140 26.5913 140 42.9647C140 59.3313 113.153 72.5913 80 72.5913C46.8467 72.5913 20 59.3313 20 42.9647C20 26.5913 46.8467 13.3313 80 13.3313Z" fill="#43515A"/>
</svg>
