<svg width="160" height="160" viewBox="0 0 160 160" fill="none" xmlns="http://www.w3.org/2000/svg">
<path fill-rule="evenodd" clip-rule="evenodd" d="M60.0002 126.667V146.667H46.6668V126.667H60.0002ZM86.6668 126.667V146.667H73.3335V126.667H86.6668ZM113.334 126.667V146.667H100V126.667H113.334ZM106.667 40C114.027 40 120 45.9733 120 53.3333V106.667C120 114.027 114.027 120 106.667 120H53.3335C45.9735 120 40.0002 114.027 40.0002 106.667V53.3333C40.0002 45.9733 45.9735 40 53.3335 40H106.667ZM146.667 100V113.333H126.667V100H146.667ZM33.3335 100V113.333H13.3335V100H33.3335ZM100 86.6667H73.3335V100H100V86.6667ZM146.667 73.3333V86.6667H126.667V73.3333H146.667ZM33.3335 73.3333V86.6667H13.3335V73.3333H33.3335ZM146.667 46.6667V60H126.667V46.6667H146.667ZM33.3335 46.6667V60H13.3335V46.6667H33.3335ZM60.0002 13.3333V33.3333H46.6668V13.3333H60.0002ZM86.6668 13.3333V33.3333H73.3335V13.3333H86.6668ZM113.334 13.3333V33.3333H100V13.3333H113.334Z" fill="#5A2B3B"/>
</svg>
