<svg width="160" height="160" viewBox="0 0 160 160" fill="none" xmlns="http://www.w3.org/2000/svg">
<path fill-rule="evenodd" clip-rule="evenodd" d="M146.667 46.6667V60H133.334V73.3333H146.667V86.6667H133.334V100H146.667V113.333H133.334V126.667C133.334 134 127.333 140 120 140H26.6668C19.3337 140 13.3335 134 13.3335 126.667V33.3333C13.3335 26.0002 19.3337 20 26.6668 20H120C127.333 20 133.334 26.0002 133.334 33.3333V46.6667H146.667ZM26.6668 126.667H120V33.3333H26.6668V126.667ZM40.0002 86.6667H73.3335V113.333H40.0002V86.6667ZM106.667 46.6667H80.0002V66.6667H106.667V46.6667ZM40.0002 46.6667H73.3335V80H40.0002V46.6667ZM106.667 73.3333H80.0002V113.333H106.667V73.3333Z" fill="#005E7D"/>
</svg>
