<svg width="160" height="160" viewBox="0 0 160 160" fill="none" xmlns="http://www.w3.org/2000/svg">
<path fill-rule="evenodd" clip-rule="evenodd" d="M79.9999 46.6667H146.667V140H13.3333V20H79.9999V46.6667ZM26.6666 126.667H39.9999V113.333H26.6666V126.667ZM39.9999 100H26.6666V86.6667H39.9999V100ZM26.6666 73.3333H39.9999V60H26.6666V73.3333ZM39.9999 46.6667H26.6666V33.3333H39.9999V46.6667ZM53.3333 126.667H66.6666V113.333H53.3333V126.667ZM66.6666 100H53.3333V86.6667H66.6666V100ZM53.3333 73.3333H66.6666V60H53.3333V73.3333ZM66.6666 46.6667H53.3333V33.3333H66.6666V46.6667ZM133.333 126.667V60H79.9999V73.3333H93.3333V86.6667H79.9999V100H93.3333V113.333H79.9999V126.667H133.333ZM120 73.3333H106.667V86.6667H120V73.3333ZM106.667 100H120V113.333H106.667V100Z" fill="#FF8F00"/>
</svg>
