<svg width="205" height="47" viewBox="0 0 205 47" fill="none" xmlns="http://www.w3.org/2000/svg">
<g filter="url(#filter0_ddd_2398_1899)">
<rect x="5" y="4" width="195" height="36" rx="8" fill="#59CECD"/>
<path d="M20.262 25.152H23.398V27H17.868V17.172H20.262V25.152ZM31.1579 25.264H27.4899L26.9019 27H24.3959L27.9519 17.172H30.7239L34.2799 27H31.7459L31.1579 25.264ZM30.5419 23.416L29.3239 19.818L28.1199 23.416H30.5419ZM41.5601 27L38.2561 22.66V27H35.8621V17.172H38.2561V21.484L41.5321 17.172H44.3461L40.5381 21.988L44.4861 27H41.5601ZM48.5179 19.09V21.078H51.7239V22.926H48.5179V25.082H52.1439V27H46.1239V17.172H52.1439V19.09H48.5179ZM61.3469 17.172C62.3829 17.172 63.2882 17.3773 64.0629 17.788C64.8375 18.1987 65.4349 18.7773 65.8549 19.524C66.2842 20.2613 66.4989 21.1153 66.4989 22.086C66.4989 23.0473 66.2842 23.9013 65.8549 24.648C65.4349 25.3947 64.8329 25.9733 64.0489 26.384C63.2742 26.7947 62.3735 27 61.3469 27H57.6649V17.172H61.3469ZM61.1929 24.928C62.0982 24.928 62.8029 24.6807 63.3069 24.186C63.8109 23.6913 64.0629 22.9913 64.0629 22.086C64.0629 21.1807 63.8109 20.476 63.3069 19.972C62.8029 19.468 62.0982 19.216 61.1929 19.216H60.0589V24.928H61.1929ZM72.9848 27.098C72.0608 27.098 71.2114 26.8833 70.4368 26.454C69.6714 26.0247 69.0601 25.4273 68.6028 24.662C68.1547 23.8873 67.9307 23.0193 67.9307 22.058C67.9307 21.0967 68.1547 20.2333 68.6028 19.468C69.0601 18.7027 69.6714 18.1053 70.4368 17.676C71.2114 17.2467 72.0608 17.032 72.9848 17.032C73.9088 17.032 74.7534 17.2467 75.5188 17.676C76.2934 18.1053 76.9001 18.7027 77.3388 19.468C77.7868 20.2333 78.0108 21.0967 78.0108 22.058C78.0108 23.0193 77.7868 23.8873 77.3388 24.662C76.8908 25.4273 76.2841 26.0247 75.5188 26.454C74.7534 26.8833 73.9088 27.098 72.9848 27.098ZM72.9848 24.914C73.7688 24.914 74.3941 24.6527 74.8607 24.13C75.3368 23.6073 75.5748 22.9167 75.5748 22.058C75.5748 21.19 75.3368 20.4993 74.8607 19.986C74.3941 19.4633 73.7688 19.202 72.9848 19.202C72.1914 19.202 71.5568 19.4587 71.0808 19.972C70.6141 20.4853 70.3808 21.1807 70.3808 22.058C70.3808 22.926 70.6141 23.6213 71.0808 24.144C71.5568 24.6573 72.1914 24.914 72.9848 24.914ZM79.4366 22.072C79.4366 21.1013 79.6466 20.238 80.0666 19.482C80.4866 18.7167 81.0699 18.124 81.8166 17.704C82.5726 17.2747 83.4266 17.06 84.3786 17.06C85.5453 17.06 86.5439 17.368 87.3746 17.984C88.2053 18.6 88.7606 19.44 89.0406 20.504H86.4086C86.2126 20.0933 85.9326 19.7807 85.5686 19.566C85.2139 19.3513 84.8079 19.244 84.3506 19.244C83.6133 19.244 83.0159 19.5007 82.5586 20.014C82.1013 20.5273 81.8726 21.2133 81.8726 22.072C81.8726 22.9307 82.1013 23.6167 82.5586 24.13C83.0159 24.6433 83.6133 24.9 84.3506 24.9C84.8079 24.9 85.2139 24.7927 85.5686 24.578C85.9326 24.3633 86.2126 24.0507 86.4086 23.64H89.0406C88.7606 24.704 88.2053 25.544 87.3746 26.16C86.5439 26.7667 85.5453 27.07 84.3786 27.07C83.4266 27.07 82.5726 26.86 81.8166 26.44C81.0699 26.0107 80.4866 25.418 80.0666 24.662C79.6466 23.906 79.4366 23.0427 79.4366 22.072ZM93.3587 17.172V23.052C93.3587 23.64 93.5033 24.0927 93.7927 24.41C94.082 24.7273 94.5067 24.886 95.0667 24.886C95.6267 24.886 96.056 24.7273 96.3547 24.41C96.6533 24.0927 96.8027 23.64 96.8027 23.052V17.172H99.1967V23.038C99.1967 23.9153 99.01 24.6573 98.6367 25.264C98.2633 25.8707 97.7593 26.328 97.1247 26.636C96.4993 26.944 95.7993 27.098 95.0247 27.098C94.25 27.098 93.5547 26.9487 92.9387 26.65C92.332 26.342 91.8513 25.8847 91.4967 25.278C91.142 24.662 90.9647 23.9153 90.9647 23.038V17.172H93.3587ZM112.508 17.172V27H110.114V21.106L107.916 27H105.984L103.772 21.092V27H101.378V17.172H104.206L106.964 23.976L109.694 17.172H112.508ZM117.123 19.09V21.078H120.329V22.926H117.123V25.082H120.749V27H114.729V17.172H120.749V19.09H117.123ZM131.596 27H129.202L125.198 20.938V27H122.804V17.172H125.198L129.202 23.262V17.172H131.596V27ZM140.901 17.172V19.09H138.297V27H135.903V19.09H133.299V17.172H140.901ZM148.72 25.264H145.052L144.464 27H141.958L145.514 17.172H148.286L151.842 27H149.308L148.72 25.264ZM148.104 23.416L146.886 19.818L145.682 23.416H148.104ZM160.495 17.172V19.09H157.891V27H155.497V19.09H152.893V17.172H160.495ZM164.59 17.172V27H162.196V17.172H164.59ZM171.473 27.098C170.549 27.098 169.7 26.8833 168.925 26.454C168.16 26.0247 167.548 25.4273 167.091 24.662C166.643 23.8873 166.419 23.0193 166.419 22.058C166.419 21.0967 166.643 20.2333 167.091 19.468C167.548 18.7027 168.16 18.1053 168.925 17.676C169.7 17.2467 170.549 17.032 171.473 17.032C172.397 17.032 173.242 17.2467 174.007 17.676C174.782 18.1053 175.388 18.7027 175.827 19.468C176.275 20.2333 176.499 21.0967 176.499 22.058C176.499 23.0193 176.275 23.8873 175.827 24.662C175.379 25.4273 174.772 26.0247 174.007 26.454C173.242 26.8833 172.397 27.098 171.473 27.098ZM171.473 24.914C172.257 24.914 172.882 24.6527 173.349 24.13C173.825 23.6073 174.063 22.9167 174.063 22.058C174.063 21.19 173.825 20.4993 173.349 19.986C172.882 19.4633 172.257 19.202 171.473 19.202C170.68 19.202 170.045 19.4587 169.569 19.972C169.102 20.4853 168.869 21.1807 168.869 22.058C168.869 22.926 169.102 23.6213 169.569 24.144C170.045 24.6573 170.68 24.914 171.473 24.914ZM187.123 27H184.729L180.725 20.938V27H178.331V17.172H180.725L184.729 23.262V17.172H187.123V27Z" fill="black" fill-opacity="0.87"/>
</g>
<defs>
<filter id="filter0_ddd_2398_1899" x="0" y="0" width="205" height="47" filterUnits="userSpaceOnUse" color-interpolation-filters="sRGB">
<feFlood flood-opacity="0" result="BackgroundImageFix"/>
<feColorMatrix in="SourceAlpha" type="matrix" values="0 0 0 0 0 0 0 0 0 0 0 0 0 0 0 0 0 0 127 0" result="hardAlpha"/>
<feOffset dy="1"/>
<feGaussianBlur stdDeviation="2.5"/>
<feColorMatrix type="matrix" values="0 0 0 0 0 0 0 0 0 0 0 0 0 0 0 0 0 0 0.2 0"/>
<feBlend mode="normal" in2="BackgroundImageFix" result="effect1_dropShadow_2398_1899"/>
<feColorMatrix in="SourceAlpha" type="matrix" values="0 0 0 0 0 0 0 0 0 0 0 0 0 0 0 0 0 0 127 0" result="hardAlpha"/>
<feOffset dy="3"/>
<feGaussianBlur stdDeviation="2"/>
<feColorMatrix type="matrix" values="0 0 0 0 0 0 0 0 0 0 0 0 0 0 0 0 0 0 0.12 0"/>
<feBlend mode="normal" in2="effect1_dropShadow_2398_1899" result="effect2_dropShadow_2398_1899"/>
<feColorMatrix in="SourceAlpha" type="matrix" values="0 0 0 0 0 0 0 0 0 0 0 0 0 0 0 0 0 0 127 0" result="hardAlpha"/>
<feOffset dy="2"/>
<feGaussianBlur stdDeviation="2"/>
<feColorMatrix type="matrix" values="0 0 0 0 0 0 0 0 0 0 0 0 0 0 0 0 0 0 0.14 0"/>
<feBlend mode="normal" in2="effect2_dropShadow_2398_1899" result="effect3_dropShadow_2398_1899"/>
<feBlend mode="normal" in="SourceGraphic" in2="effect3_dropShadow_2398_1899" result="shape"/>
</filter>
</defs>
</svg>
