<svg width="300" height="300" viewBox="0 0 300 300" fill="none" xmlns="http://www.w3.org/2000/svg">
<path fill-rule="evenodd" clip-rule="evenodd" d="M250 225C263.75 225 274.875 213.75 274.875 200L275 62.5C275 48.7503 263.75 37.5 250 37.5H50C36.2503 37.5 25 48.7503 25 62.5V200C25 213.75 36.2503 225 50 225H0C0 238.75 11.2503 250 25 250H275C288.75 250 300 238.75 300 225H250ZM50 62.5H250V200H50V62.5ZM137.5 225C137.5 231.875 143.125 237.5 150 237.5C156.875 237.5 162.5 231.875 162.5 225C162.5 218.125 156.875 212.5 150 212.5C143.125 212.5 137.5 218.125 137.5 225Z" fill="#F3753F"/>
</svg>
