<svg width="160" height="160" viewBox="0 0 160 160" fill="none" xmlns="http://www.w3.org/2000/svg">
<g clip-path="url(#clip0_2262_2547)">
<path fill-rule="evenodd" clip-rule="evenodd" d="M133.333 86.6667V100H126.667L126.667 110.921L158.454 149.068C160.114 151.055 160.467 153.821 159.374 156.161C158.396 158.241 156.428 159.658 154.186 159.947L153.334 160.001H86.6675C84.0808 160.001 81.7275 158.501 80.6275 156.161C79.6556 154.081 79.8268 151.664 81.0427 149.757L81.5475 149.068L113.334 110.921L113.333 100H106.667V86.6667H133.333ZM126.667 26.6667C134 26.6667 140 32.6667 140 40V73.3267H126.667V53.3333H86.6667V80H93.3333V93.3333H86.6667V120H88.3933L77.2933 133.333H33.3333C26 133.333 20 127.333 20 120V40C20 32.6667 26 26.6667 33.3333 26.6667H126.667ZM73.3333 93.3333H33.3333V120H73.3333V93.3333ZM73.3333 53.3333H33.3333V80H73.3333V53.3333Z" fill="#161C1F"/>
</g>
<defs>
<clipPath id="clip0_2262_2547">
<rect width="160" height="160" fill="white"/>
</clipPath>
</defs>
</svg>
