<svg width="52" height="52" viewBox="0 0 52 52" fill="none" xmlns="http://www.w3.org/2000/svg">
<path fill-rule="evenodd" clip-rule="evenodd" d="M25.3067 28.3617C28.1667 23.8334 34.2117 22.4467 38.7617 25.3067C43.1949 28.08 44.5924 33.8483 42.0652 38.3441L41.8167 38.7617L48.5117 45.5L45.5001 48.5117L38.7617 41.8167C35.5767 43.81 31.5467 43.81 28.3617 41.8167C23.8334 39 22.4467 32.9334 25.3067 28.3617ZM30.3334 4.33337L43.3334 17.3334L43.3342 23.4022C42.6519 22.7483 41.8928 22.1541 41.06 21.633C36.3289 18.6592 30.4766 18.8623 26.0283 21.664L15.1667 21.6667V26L21.675 25.9972L21.643 26.0477C20.7938 27.405 20.203 28.8526 19.8571 30.3314L15.1667 30.3334V34.6667L19.5297 34.6665C19.8674 38.9718 22.1572 43.0606 26.073 45.4963L26.587 45.8031C28.7552 47.0358 31.1699 47.6503 33.5849 47.6458L33.5834 47.6667H12.9784C10.7034 47.6667 8.84299 45.89 8.67856 43.6555L8.66675 43.3334L8.68842 8.66671C8.68842 6.39171 10.4454 4.51154 12.678 4.34532L13.0001 4.33337H30.3334ZM37.4834 29.7484C35.3601 27.6467 31.9367 27.6467 29.8351 29.7484C27.7117 31.8717 27.7117 35.295 29.8134 37.4184C31.8444 39.4287 35.0649 39.5359 37.1993 37.6832L37.4834 37.4184H37.4184C39.5417 35.3167 39.5634 31.8934 37.4834 29.7484Z" fill="#005E7D"/>
</svg>
