<svg width="52" height="52" viewBox="0 0 52 52" fill="none" xmlns="http://www.w3.org/2000/svg">
<path fill-rule="evenodd" clip-rule="evenodd" d="M23.8115 17.3334C23.8115 20.93 20.9299 23.8334 17.3332 23.8334C13.7364 23.8334 10.8332 20.93 10.8332 17.3334C10.8332 13.7368 13.7364 10.8334 17.3332 10.8334C20.9299 10.8334 23.8115 13.7368 23.8115 17.3334ZM41.1448 17.3334C41.1448 20.93 38.2632 23.8334 34.6665 23.8334C31.0698 23.8334 28.1665 20.93 28.1665 17.3334C28.1665 13.7368 31.0698 10.8334 34.6665 10.8334C38.2632 10.8334 41.1448 13.7368 41.1448 17.3334ZM17.3332 28.1667C12.2849 28.1667 2.1665 30.7017 2.1665 35.75V41.1667H32.4998V35.75C32.4998 30.7017 22.3814 28.1667 17.3332 28.1667ZM32.5649 28.275C33.3232 28.2101 34.0383 28.1667 34.6665 28.1667C39.715 28.1667 49.8332 30.7017 49.8332 35.75V41.1667H36.8332V35.75C36.8332 32.5434 35.0783 30.0951 32.5649 28.275Z" fill="#B53D0A"/>
</svg>
