<svg width="20" height="20" viewBox="0 0 20 20" fill="none" xmlns="http://www.w3.org/2000/svg">
<path d="M4.4165 17.0833C3.99984 17.0833 3.64567 16.9375 3.354 16.6458C3.06234 16.3541 2.9165 16 2.9165 15.5833V4.41663C2.9165 3.99996 3.06234 3.64579 3.354 3.35413C3.64567 3.06246 3.99984 2.91663 4.4165 2.91663H9.68734V4.16663H4.4165C4.36095 4.16663 4.30539 4.1944 4.24984 4.24996C4.19428 4.30551 4.1665 4.36107 4.1665 4.41663V15.5833C4.1665 15.6388 4.19428 15.6944 4.24984 15.75C4.30539 15.8055 4.36095 15.8333 4.4165 15.8333H15.5832C15.6387 15.8333 15.6943 15.8055 15.7498 15.75C15.8054 15.6944 15.8332 15.6388 15.8332 15.5833V10.3125H17.0832V15.5833C17.0832 16 16.9373 16.3541 16.6457 16.6458C16.354 16.9375 15.9998 17.0833 15.5832 17.0833H4.4165ZM8.104 12.7708L7.229 11.8958L14.9582 4.16663H11.6665V2.91663H17.0832V8.33329H15.8332V5.04163L8.104 12.7708Z" fill="#00233C"/>
</svg>
