            <svg xmlns="http://www.w3.org/2000/svg" width="40" height="40" viewBox="0 0 40 40" fill="none">
              <mask id="mask0_301_35850" style="mask-type:alpha" maskUnits="userSpaceOnUse" x="0" y="0" width="40" height="40">
                <rect width="40" height="40" fill="#D9D9D9"/>
              </mask>
              <g mask="url(#mask0_301_35850)">
                <path d="M17.1666 33C18.4166 30.4723 20.0833 28.7848 22.1666 27.9375C24.2499 27.0903 26.0277 26.6667 27.4999 26.6667C28.1388 26.6667 28.7638 26.7223 29.3749 26.8334C29.986 26.9445 30.5833 27.0834 31.1666 27.25C31.8333 26.1945 32.361 25.0556 32.7499 23.8334C33.1388 22.6112 33.3333 21.3334 33.3333 20C33.3333 16.2778 32.0416 13.125 29.4583 10.5417C26.8749 7.95837 23.7221 6.66671 19.9999 6.66671C16.2777 6.66671 13.1249 7.95837 10.5416 10.5417C7.95825 13.125 6.66659 16.2778 6.66659 20C6.66659 21.25 6.82631 22.4445 7.14575 23.5834C7.4652 24.7223 7.94436 25.7778 8.58325 26.75C9.72214 26.1945 10.9027 25.7639 12.1249 25.4584C13.3471 25.1528 14.5833 25 15.8333 25C16.7221 25 17.5763 25.0764 18.3958 25.2292C19.2152 25.382 20.0277 25.5834 20.8333 25.8334C20.1944 26.1667 19.5902 26.5556 19.0208 27C18.4513 27.4445 17.9166 27.9167 17.4166 28.4167C17.0833 28.3612 16.7985 28.3334 16.5624 28.3334H15.8333C14.9444 28.3334 14.0624 28.4306 13.1874 28.625C12.3124 28.8195 11.4721 29.1112 10.6666 29.5C11.5555 30.3889 12.5485 31.132 13.6458 31.7292C14.743 32.3264 15.9166 32.75 17.1666 33ZM19.9999 36.6667C17.6944 36.6667 15.5277 36.2292 13.4999 35.3542C11.4721 34.4792 9.70825 33.2917 8.20825 31.7917C6.70825 30.2917 5.52075 28.5278 4.64575 26.5C3.77075 24.4723 3.33325 22.3056 3.33325 20C3.33325 17.6945 3.77075 15.5278 4.64575 13.5C5.52075 11.4723 6.70825 9.70837 8.20825 8.20837C9.70825 6.70837 11.4721 5.52087 13.4999 4.64587C15.5277 3.77087 17.6944 3.33337 19.9999 3.33337C22.3055 3.33337 24.4721 3.77087 26.4999 4.64587C28.5277 5.52087 30.2916 6.70837 31.7916 8.20837C33.2916 9.70837 34.4791 11.4723 35.3541 13.5C36.2291 15.5278 36.6666 17.6945 36.6666 20C36.6666 22.3056 36.2291 24.4723 35.3541 26.5C34.4791 28.5278 33.2916 30.2917 31.7916 31.7917C30.2916 33.2917 28.5277 34.4792 26.4999 35.3542C24.4721 36.2292 22.3055 36.6667 19.9999 36.6667ZM15.8333 22.5C14.2221 22.5 12.8471 21.9306 11.7083 20.7917C10.5694 19.6528 9.99992 18.2778 9.99992 16.6667C9.99992 15.0556 10.5694 13.6806 11.7083 12.5417C12.8471 11.4028 14.2221 10.8334 15.8333 10.8334C17.4444 10.8334 18.8194 11.4028 19.9583 12.5417C21.0971 13.6806 21.6666 15.0556 21.6666 16.6667C21.6666 18.2778 21.0971 19.6528 19.9583 20.7917C18.8194 21.9306 17.4444 22.5 15.8333 22.5ZM15.8333 19.1667C16.5277 19.1667 17.118 18.9237 17.6041 18.4375C18.0902 17.9514 18.3333 17.3612 18.3333 16.6667C18.3333 15.9723 18.0902 15.382 17.6041 14.8959C17.118 14.4098 16.5277 14.1667 15.8333 14.1667C15.1388 14.1667 14.5485 14.4098 14.0624 14.8959C13.5763 15.382 13.3333 15.9723 13.3333 16.6667C13.3333 17.3612 13.5763 17.9514 14.0624 18.4375C14.5485 18.9237 15.1388 19.1667 15.8333 19.1667ZM27.4999 24.1667C26.3333 24.1667 25.3471 23.7639 24.5416 22.9584C23.736 22.1528 23.3333 21.1667 23.3333 20C23.3333 18.8334 23.736 17.8473 24.5416 17.0417C25.3471 16.2362 26.3333 15.8334 27.4999 15.8334C28.6666 15.8334 29.6527 16.2362 30.4583 17.0417C31.2638 17.8473 31.6666 18.8334 31.6666 20C31.6666 21.1667 31.2638 22.1528 30.4583 22.9584C29.6527 23.7639 28.6666 24.1667 27.4999 24.1667Z" fill="#FF5F02"/>
              </g>
            </svg>