           <svg xmlns="http://www.w3.org/2000/svg" width="40" height="40" viewBox="0 0 40 40" fill="none">
              <mask id="mask0_301_35812" style="mask-type:alpha" maskUnits="userSpaceOnUse" x="0" y="0" width="40" height="40">
              <rect width="40" height="40" fill="#D9D9D9"/>
              </mask>
              <g mask="url(#mask0_301_35812)">
              <path d="M19.9998 25C20.9165 25 21.7012 24.6737 22.354 24.0209C23.0068 23.3681 23.3332 22.5834 23.3332 21.6667C23.3332 20.75 23.0068 19.9653 22.354 19.3125C21.7012 18.6598 20.9165 18.3334 19.9998 18.3334C19.0832 18.3334 18.2984 18.6598 17.6457 19.3125C16.9929 19.9653 16.6665 20.75 16.6665 21.6667C16.6665 22.5834 16.9929 23.3681 17.6457 24.0209C18.2984 24.6737 19.0832 25 19.9998 25ZM9.99984 36.6667C9.08317 36.6667 8.29845 36.3403 7.64567 35.6875C6.99289 35.0348 6.6665 34.25 6.6665 33.3334V6.66671C6.6665 5.75004 6.99289 4.96532 7.64567 4.31254C8.29845 3.65976 9.08317 3.33337 9.99984 3.33337H23.3332L33.3332 13.3334V33.3334C33.3332 34.25 33.0068 35.0348 32.354 35.6875C31.7012 36.3403 30.9165 36.6667 29.9998 36.6667H9.99984ZM9.99984 33.3334H29.2915L23.3332 27.4167C22.8609 27.7223 22.3471 27.9514 21.7915 28.1042C21.2359 28.257 20.6387 28.3334 19.9998 28.3334C18.1665 28.3334 16.5971 27.6806 15.2915 26.375C13.9859 25.0695 13.3332 23.5 13.3332 21.6667C13.3332 19.8334 13.9859 18.2639 15.2915 16.9584C16.5971 15.6528 18.1665 15 19.9998 15C21.8332 15 23.4026 15.6528 24.7082 16.9584C26.0137 18.2639 26.6665 19.8334 26.6665 21.6667C26.6665 22.3056 26.5901 22.9028 26.4373 23.4584C26.2846 24.0139 26.0554 24.5278 25.7498 25L29.9998 29.3334V14.75L21.9165 6.66671H9.99984V33.3334Z" fill="#FF5F02"/>
              </g>
            </svg>