<svg width="103" height="20" viewBox="0 0 103 20" fill="none" xmlns="http://www.w3.org/2000/svg">
<path fill-rule="evenodd" clip-rule="evenodd" d="M102.232 17.5115C102.232 18.8054 101.236 19.7981 99.8475 19.7981C98.459 19.7981 97.4629 18.8054 97.4629 17.5115C97.4629 16.278 98.459 15.1948 99.8475 15.1948C101.236 15.1948 102.232 16.278 102.232 17.5115Z" fill="#F3753F"/>
<path fill-rule="evenodd" clip-rule="evenodd" d="M11.6028 11.1729H18.2305C17.7631 9.41851 16.443 8.65097 14.9853 8.65097C13.6103 8.65097 12.0427 9.47335 11.6028 11.1729ZM21.9433 13.7223H11.4928C11.8502 15.696 13.2527 16.9023 14.9303 16.9023C16.0029 16.9023 17.3504 16.765 18.3406 15.093L21.5857 15.7782C20.3756 18.6293 17.928 19.9998 14.9303 19.9998C11.0527 19.9998 7.88994 17.0666 7.88994 12.7628C7.88994 8.45905 11.0527 5.49843 14.9853 5.49843C18.643 5.49843 21.8056 8.32197 21.9433 12.4888V13.7223Z" fill="#394851"/>
<path fill-rule="evenodd" clip-rule="evenodd" d="M57.048 12.7628C57.048 10.2409 55.0954 8.65097 53.1429 8.65097C50.9427 8.65097 49.2927 10.2409 49.2927 12.7628C49.2927 15.2848 50.9427 16.8473 53.1429 16.8473C55.0954 16.8473 57.048 15.2848 57.048 12.7628ZM60.6782 19.5886H57.048V18.4099C55.9479 19.4242 54.4354 19.9998 52.5103 19.9998C49.0176 19.9998 45.7725 17.0666 45.7725 12.7628C45.7725 8.45905 49.0176 5.49843 52.5103 5.49843C54.4354 5.49843 55.9479 6.07404 57.048 7.08834V0.637207H60.6782V19.5886Z" fill="#394851"/>
<path fill-rule="evenodd" clip-rule="evenodd" d="M92.7112 14.0512C92.7112 15.8056 91.0334 17.1215 89.1085 17.1215C87.7058 17.1215 86.7709 16.4634 86.7709 15.4491C86.7709 14.5172 87.5408 13.8868 88.696 13.8868H92.7112V14.0512ZM90.3734 5.94179V5.93827H85.3565V8.95344H90.3734C91.7761 8.95344 92.7112 9.5556 92.7112 10.9262V11.1457H88.751C85.2857 11.1457 83.3056 12.9001 83.3056 15.5315C83.3056 18.2178 85.3958 19.9998 88.531 19.9998C90.4011 19.9998 91.7761 19.3694 92.7112 18.4648V19.5886H96.1763V10.6521C96.1763 7.40283 93.8795 6.0151 90.3734 5.94179Z" fill="#394851"/>
<path fill-rule="evenodd" clip-rule="evenodd" d="M71.2474 14.0512C71.2474 15.8056 69.5698 17.1215 67.6447 17.1215C66.2421 17.1215 65.307 16.4634 65.307 15.4491C65.307 14.5172 66.077 13.8868 67.2321 13.8868H71.2474V14.0512ZM68.9097 5.94179V5.93827H63.8927V8.95344H68.9097C70.3122 8.95344 71.2474 9.5556 71.2474 10.9262V11.1457H67.2871C63.8218 11.1457 61.8419 12.9001 61.8419 15.5315C61.8419 18.2178 63.932 19.9998 67.0671 19.9998C68.9372 19.9998 70.3122 19.3694 71.2474 18.4648V19.5886H74.7124V10.6521C74.7124 7.40283 72.4157 6.0151 68.9097 5.94179Z" fill="#394851"/>
<path fill-rule="evenodd" clip-rule="evenodd" d="M41.0824 14.0512C41.0824 15.8056 39.4047 17.1215 37.4797 17.1215C36.077 17.1215 35.142 16.4634 35.142 15.4491C35.142 14.5172 35.9122 13.8868 37.0673 13.8868H41.0824V14.0512ZM38.7448 5.94179V5.93827H33.7277V8.95344H38.7448C40.1473 8.95344 41.0824 9.5556 41.0824 10.9262V11.1457H37.1221C33.657 11.1457 31.6768 12.9001 31.6768 15.5315C31.6768 18.2178 33.767 19.9998 36.9022 19.9998C38.7723 19.9998 40.1473 19.3694 41.0824 18.4648V19.5886H44.5475V10.6521C44.5475 7.40283 42.2509 6.0151 38.7448 5.94179Z" fill="#394851"/>
<path fill-rule="evenodd" clip-rule="evenodd" d="M31.7877 5.92845C29.5602 5.92845 27.965 6.81446 26.8651 8.40437V5.90983H23.2349V19.5889H26.8651V15.1754C26.8651 11.365 28.4051 8.97075 31.7602 8.97075H31.9251V5.92889C31.8805 5.9286 31.8349 5.92845 31.7877 5.92845Z" fill="#394851"/>
<path fill-rule="evenodd" clip-rule="evenodd" d="M7.20479 16.2915C6.65276 16.4979 6.07351 16.6279 5.63769 16.6279C4.42772 16.6279 3.63019 15.9154 3.63019 14.2705V8.87017H7.35188V5.90968H3.63019V2.55349H0V14.5447C0 18.3002 2.14517 19.9998 5.39028 19.9998C6.53641 19.9998 7.63091 19.7562 9.04327 19.0027C8.29061 18.2585 7.59973 17.3314 7.20479 16.2915Z" fill="#394851"/>
<path fill-rule="evenodd" clip-rule="evenodd" d="M82.1514 16.5966C82.0061 16.6168 81.8685 16.6279 81.7431 16.6279C80.5331 16.6279 79.7356 15.9154 79.7356 14.2705V8.87017H83.5574V5.90968H79.7356V2.55349H76.1052V14.5447C76.1052 18.3002 78.2504 19.9998 81.4957 19.9998C82.2883 19.9998 83.0035 19.8834 83.8363 19.5625C82.7597 18.7938 82.3411 17.5485 82.1514 16.5966Z" fill="#394851"/>
</svg>
