<svg width="40" height="40" viewBox="0 0 40 40" fill="none" xmlns="http://www.w3.org/2000/svg">
<path fill-rule="evenodd" clip-rule="evenodd" d="M6 0.75C6.9625 0.75 7.75 1.5375 7.75 2.5V9.5H11.25V20H0.75V9.5H4.25V2.5C4.25 1.5375 5.0375 0.75 6 0.75ZM18.25 31.935C16.22 31.2 14.75 29.275 14.75 27V23.5H25.25V27C25.25 29.2925 23.78 31.2175 21.75 31.935V39.25H18.25V31.935ZM0.75 27C0.75 29.275 2.22 31.2 4.25 31.935V39.25H7.75V31.935C9.78 31.2 11.25 29.275 11.25 27V23.5H0.75V27ZM35.75 2.5V9.5H39.25V20H28.75V9.5H32.25V2.5C32.25 1.5375 33.0375 0.75 34 0.75C34.9625 0.75 35.75 1.5375 35.75 2.5ZM21.75 2.5C21.75 1.5375 20.9625 0.75 20 0.75C19.0375 0.75 18.25 1.5375 18.25 2.5V9.5H14.75V20H25.25V9.5H21.75V2.5ZM32.25 31.935C30.22 31.2 28.75 29.275 28.75 27V23.5H39.25V27C39.25 29.2925 37.78 31.2175 35.75 31.935V39.25H32.25V31.935Z" fill="black" fill-opacity="0.6"/>
</svg>
