<svg width="52" height="52" viewBox="0 0 52 52" fill="none" xmlns="http://www.w3.org/2000/svg">
<path fill-rule="evenodd" clip-rule="evenodd" d="M25.9999 4.33337C14.0399 4.33337 4.33325 14.04 4.33325 26C4.33325 37.9601 14.0399 47.6667 25.9999 47.6667C37.9599 47.6667 47.6666 37.9601 47.6666 26C47.6666 14.04 37.9599 4.33337 25.9999 4.33337ZM21.6666 35.75L34.6666 26L21.6666 16.25V35.75ZM8.66659 26C8.66659 35.555 16.4449 43.3334 25.9999 43.3334C35.5549 43.3334 43.3333 35.555 43.3333 26C43.3333 16.445 35.5549 8.66671 25.9999 8.66671C16.4449 8.66671 8.66659 16.445 8.66659 26Z" fill="#59CECD"/>
</svg>
